<svg width="19" height="19" viewBox="0 0 19 19" fill="none" xmlns="http://www.w3.org/2000/svg">
<g clip-path="url(#clip0_1575_1104)">
<path d="M18.8147 9.71884C18.8147 9.07305 18.7623 8.42378 18.6506 7.78847H9.68994V11.4467H14.8213C14.6084 12.6266 13.9242 13.6703 12.9224 14.3336V16.7073H15.9837C17.7815 15.0527 18.8147 12.6092 18.8147 9.71884Z" fill="#4285F4"/>
<path d="M9.68988 19.0006C12.2521 19.0006 14.4128 18.1594 15.9871 16.7072L12.9258 14.3336C12.074 14.913 10.9745 15.2411 9.69337 15.2411C7.21496 15.2411 5.11354 13.5691 4.35954 11.3211H1.20044V13.7681C2.81315 16.976 6.09792 19.0006 9.68988 19.0006Z" fill="#34A853"/>
<path d="M4.35612 11.3211C3.95818 10.1412 3.95818 8.8636 4.35612 7.68374V5.23674H1.20051C-0.146913 7.9211 -0.146913 11.0837 1.20051 13.7681L4.35612 11.3211Z" fill="#FBBC04"/>
<path d="M9.68988 3.76015C11.0443 3.7392 12.3533 4.24885 13.3342 5.18436L16.0465 2.47207C14.329 0.859358 12.0496 -0.0272856 9.68988 0.000640194C6.09792 0.000640194 2.81315 2.02526 1.20044 5.23672L4.35605 7.68372C5.10656 5.4322 7.21146 3.76015 9.68988 3.76015Z" fill="#EA4335"/>
</g>
<defs>
<clipPath id="clip0_1575_1104">
<rect width="19" height="19" fill="white"/>
</clipPath>
</defs>
</svg>
