<svg width="17" height="17" viewBox="0 0 17 17" fill="none" xmlns="http://www.w3.org/2000/svg">
<path d="M2.78339 11.7796C2.6488 11.7796 2.51422 11.73 2.40797 11.6238C2.20255 11.4183 2.20255 11.0783 2.40797 10.8729L10.8726 2.40833C11.078 2.20292 11.418 2.20292 11.6234 2.40833C11.8288 2.61375 11.8288 2.95375 11.6234 3.15917L3.1588 11.6308C3.05964 11.73 2.91797 11.7796 2.78339 11.7796Z" fill="#25B15D"/>
<path d="M7.86249 13.4796C7.7279 13.4796 7.59332 13.43 7.48707 13.3238C7.28165 13.1183 7.28165 12.7783 7.48707 12.5729L8.33707 11.7229C8.54249 11.5175 8.88249 11.5175 9.0879 11.7229C9.29332 11.9283 9.29332 12.2683 9.0879 12.4738L8.2379 13.3238C8.13874 13.4229 8.00415 13.4796 7.86249 13.4796Z" fill="#25B15D"/>
<path d="M9.76776 11.5742C9.63318 11.5742 9.49859 11.5246 9.39234 11.4183C9.18693 11.2129 9.18693 10.8729 9.39234 10.6675L11.0853 8.97458C11.2907 8.76916 11.6307 8.76916 11.8361 8.97458C12.0415 9.18 12.0415 9.52 11.8361 9.72541L10.1432 11.4183C10.044 11.5175 9.90234 11.5742 9.76776 11.5742Z" fill="#25B15D"/>
<path d="M7.86224 16.1146C7.16807 16.1146 6.4739 15.6896 5.63099 14.8467L2.15307 11.3687C0.460152 9.67583 0.467236 8.585 2.17432 6.87791L6.87765 2.17458C8.58474 0.467495 9.67557 0.460412 11.3685 2.15333L14.8464 5.63125C16.5393 7.32416 16.5322 8.415 14.8252 10.1221L10.1218 14.8254C9.26474 15.6825 8.56349 16.1146 7.86224 16.1146ZM9.13724 1.94791C8.7689 1.94791 8.3014 2.2525 7.62849 2.92541L2.92515 7.62875C2.25224 8.30166 1.94765 8.76916 1.94765 9.13041C1.94765 9.49875 2.23099 9.945 2.9039 10.6179L6.38182 14.0958C7.05474 14.7687 7.4939 15.0521 7.86224 15.0521C7.86224 15.0521 7.86224 15.0521 7.86932 15.0521C8.23765 15.0521 8.69807 14.7475 9.37099 14.0746L14.0743 9.37125C14.7472 8.69833 15.0518 8.23083 15.0518 7.86958C15.0518 7.50125 14.7685 7.055 14.0956 6.38208L10.6177 2.90416C9.95182 2.23125 9.50557 1.94791 9.13724 1.94791Z" fill="#25B15D"/>
<path d="M15.5837 16.1146H1.41699C1.12658 16.1146 0.885742 15.8738 0.885742 15.5833C0.885742 15.2929 1.12658 15.0521 1.41699 15.0521H15.5837C15.8741 15.0521 16.1149 15.2929 16.1149 15.5833C16.1149 15.8738 15.8741 16.1146 15.5837 16.1146Z" fill="#25B15D"/>
</svg>
