<svg width="18" height="18" viewBox="0 0 18 18" fill="none" xmlns="http://www.w3.org/2000/svg">
<path d="M5.8125 13.875C3.1275 13.875 0.9375 11.685 0.9375 9C0.9375 6.315 3.1275 4.125 5.8125 4.125C6.12 4.125 6.375 4.38 6.375 4.6875C6.375 4.995 6.12 5.25 5.8125 5.25C3.7425 5.25 2.0625 6.93 2.0625 9C2.0625 11.07 3.7425 12.75 5.8125 12.75C7.8825 12.75 9.5625 11.07 9.5625 9C9.5625 8.6925 9.8175 8.4375 10.125 8.4375C10.4325 8.4375 10.6875 8.6925 10.6875 9C10.6875 11.685 8.4975 13.875 5.8125 13.875Z" fill="#25B15D"/>
<path d="M12 14.0625C11.6925 14.0625 11.4375 13.8075 11.4375 13.5C11.4375 13.1925 11.6925 12.9375 12 12.9375C14.1675 12.9375 15.9375 11.1675 15.9375 9C15.9375 6.8325 14.1675 5.0625 12 5.0625C9.8325 5.0625 8.0625 6.8325 8.0625 9C8.0625 9.3075 7.8075 9.5625 7.5 9.5625C7.1925 9.5625 6.9375 9.3075 6.9375 9C6.9375 6.21 9.21 3.9375 12 3.9375C14.79 3.9375 17.0625 6.21 17.0625 9C17.0625 11.79 14.79 14.0625 12 14.0625Z" fill="#25B15D"/>
</svg>
