<?xml version="1.0" encoding="utf-8"?>
<!-- Generator: Adobe Illustrator 16.0.0, SVG Export Plug-In . SVG Version: 6.00 Build 0)  -->
<!DOCTYPE svg PUBLIC "-//W3C//DTD SVG 1.1//EN" "http://www.w3.org/Graphics/SVG/1.1/DTD/svg11.dtd">
<svg version="1.1" id="Layer_1" xmlns="http://www.w3.org/2000/svg" xmlns:xlink="http://www.w3.org/1999/xlink" x="0px" y="0px"
	 width="595.279px" height="841.89px" viewBox="0 0 595.279 841.89" enable-background="new 0 0 595.279 841.89"
	 xml:space="preserve">
<g opacity="0.1">
	<path fill="#231F20" d="M-72.116,788.099c0.295-3.551,2.079-7.517,5.26-9.335c3.756-0.105,6.802,3.187,8.58,6.228
		c-1.963,3.144-4.417,5.943-6.914,8.668C-67.792,792.276-70.608,790.735-72.116,788.099 M10.593,768.447
		c1.309-2.209,2.994-5.373,5.996-5.102c3.717,0.738,5.855,4.328,7.56,7.396C19.592,770.732,14.664,770.772,10.593,768.447
		 M-33.836,675.144c-0.15,5.021-2.464,10.646,0.981,15.067C-22.414,707.28-12.5,728.65-2.816,746.156
		c3.646,6.856,7.924,13.556,9.916,21.124c-0.903,7.478-3.173,16.731-11.309,19.334c-7.082,2.041-13.63-5.72-10.822-12.393
		c4.15-4.707,10.23-6.783,15.528-9.852c0.35-3.691-0.074-7.379-0.764-11.002c-11.408,6.528-24.613,9.096-37.704,9.513
		c2.936-6.228,1.876-14.032,5.738-19.606c5.177,0.176,8.71,5.855,12.243,9.318c4.098-8.917-3.653-20.429-12.859-20.523
		c-5.768,8.551-3.299,21.67-12.53,28.63c-6.241,3.86-6.366,11.365-6.078,17.895c7.817-6.584,18.621-3.567,27.807-6.061
		c-7.68,11.354-19.285,22.285-33.722,22.838c3.393-5.675,2.776-12.845,1.545-19.067c-2.01-4.676-8.31-12.146-13.374-6.996
		c-6.387,8.492-8.638,21.457-3.301,30.904c-21.479,17.995-60.187,28.401-87.934,26.762c0.291,3.683,0.623,7.362,1.129,11.017
		c32.821,0.898,69.853-10.332,94.082-32.483c1.451,0.491,3.087,0.912,4.805,1.17c19.81,2.979,33.56-16.019,42.984-30.361
		c0.099,7.694,0.607,26.371,15.956,20.938c6.459-2.286,7.57-12.646,9.24-18.519c4.751,2.942,10.569,3.419,16.012,2.979
		c3.427-0.202,4.368-3.974,4.985-6.722c2.479-8.332-1.773-18.221-9.183-22.529c-4.867-2.251-7.8,3.153-10.047,6.478
		c-6.645-23.481-26.142-53.66-37.446-73.774c18.755-8.188,40.394-7.72,59.768-1.896c16.913,5.326,31.064,20.337,33.825,38.044
		c0.749,2.218-0.826,5.394,1.259,6.914c5.382-25.033-13.999-50.268-37.883-56.464c-8.63-2.559-17.603-3.823-26.574-3.823
		C-9.932,667.939-22.344,670.364-33.836,675.144"/>
	<path fill="#231F20" d="M-72.116,788.099c0.295-3.551,2.079-7.517,5.26-9.335c3.756-0.105,6.802,3.187,8.58,6.228
		c-1.963,3.144-4.417,5.943-6.914,8.668C-67.792,792.276-70.608,790.735-72.116,788.099 M10.593,768.447
		c1.309-2.209,2.994-5.375,5.996-5.102c3.717,0.738,5.855,4.328,7.56,7.396C19.592,770.732,14.664,770.772,10.593,768.447
		 M-33.836,675.144c-0.15,5.021-2.464,10.646,0.981,15.067C-22.414,707.28-12.5,728.65-2.816,746.156
		c3.646,6.854,7.924,13.556,9.916,21.124c-0.903,7.478-3.173,16.731-11.309,19.334c-7.082,2.041-13.63-5.72-10.822-12.393
		c4.15-4.707,10.23-6.783,15.528-9.852c0.35-3.691-0.074-7.379-0.764-11.002c-11.408,6.528-24.613,9.096-37.704,9.513
		c2.936-6.228,1.876-14.032,5.738-19.606c5.177,0.176,8.71,5.855,12.243,9.317c4.098-8.916-3.653-20.426-12.859-20.522
		c-5.768,8.551-3.299,21.67-12.53,28.63c-6.241,3.86-6.366,11.365-6.078,17.895c7.817-6.584,18.621-3.567,27.807-6.061
		c-7.678,11.354-19.285,22.285-33.722,22.838c3.393-5.675,2.776-12.843,1.545-19.067c-2.01-4.674-8.31-12.146-13.374-6.996
		c-6.388,8.492-8.638,21.457-3.301,30.904c-21.479,17.995-60.187,28.401-87.934,26.762c0.29,3.683,0.623,7.36,1.129,11.017
		c32.821,0.897,69.853-10.332,94.082-32.483c1.451,0.491,3.087,0.912,4.805,1.17c19.81,2.979,33.56-16.019,42.986-30.361
		c0.097,7.694,0.605,26.369,15.954,20.938c6.459-2.286,7.57-12.646,9.24-18.52c4.751,2.943,10.569,3.42,16.012,2.979
		c3.427-0.202,4.368-3.974,4.985-6.722c2.479-8.332-1.773-18.221-9.183-22.529c-4.867-2.251-7.8,3.153-10.047,6.477
		c-6.645-23.48-26.142-53.659-37.446-73.773c18.755-8.188,40.394-7.72,59.767-1.896c16.914,5.326,31.065,20.337,33.826,38.044
		c0.749,2.218-0.826,5.394,1.259,6.914c5.382-25.033-13.999-50.268-37.883-56.464c-8.63-2.559-17.603-3.823-26.574-3.823
		C-9.932,667.939-22.344,670.364-33.836,675.144"/>
	<path fill="#231F20" d="M60.063,740.705c5.25-1.273,11.625,0.179,15.919,3.548c-7.081,6.459-16.078,10.859-25.447,12.816
		C53.664,751.653,55.215,744.839,60.063,740.705 M59.513,730.554c-5.164,4.512-10.466,20.16-13.734,26.629
		c-5.241-0.851-6.457-7.799-11.243-9.933c-0.19,3.63-1.062,7.196-1.194,10.808c5.133,5.733,10.662,11.932,12.389,19.635
		c-11.252,17.418-41.217,32.313-67.562,40.709c-15.628,4.98-32.486,9.184-48.951,6.398c0.146,3.672,0.27,7.352,0.596,11.013
		c16.133,2.638,33.312-1.216,48.665-5.978c23.245-7.209,47.405-19.545,61.346-34.396c6.715-7.15,10.279-16.923,9.003-26.874
		c10.532-2.142,21.067-7.34,27.916-15.758c2.082-6.671,6.143-17.953-2.313-21.684c-2.979-0.725-6.699-2.229-10.038-2.229
		C62.598,728.897,60.912,729.331,59.513,730.554"/>
	<path fill="#231F20" d="M60.063,740.705c5.251-1.273,11.625,0.179,15.919,3.548c-7.081,6.459-16.078,10.859-25.447,12.816
		C53.664,751.653,55.215,744.839,60.063,740.705 M59.513,730.554c-5.164,4.511-10.466,20.16-13.734,26.629
		c-5.241-0.851-6.457-7.799-11.243-9.933c-0.19,3.63-1.062,7.196-1.194,10.808c5.133,5.733,10.662,11.932,12.389,19.632
		c-11.252,17.421-41.217,32.315-67.562,40.712c-15.628,4.98-32.486,9.184-48.951,6.398c0.146,3.672,0.27,7.352,0.596,11.013
		c16.133,2.638,33.312-1.217,48.665-5.978c23.245-7.209,47.405-19.545,61.346-34.396c6.715-7.15,10.279-16.923,9.003-26.874
		c10.532-2.142,21.067-7.34,27.916-15.758c2.082-6.671,6.143-17.953-2.313-21.684c-2.979-0.725-6.699-2.229-10.038-2.229
		C62.598,728.897,60.912,729.331,59.513,730.554"/>
	<path fill="#231F20" d="M115.259,791.256c3.818-7.625,13.088-1.767,14.565,4.461C124.699,795.602,119.529,794.134,115.259,791.256
		 M83.117,731.796c7.038,14.72,15.608,28.618,23.827,42.692c2.409,4.464,5.395,8.984,5.824,14.15
		c-1.042,4.912-2.667,9.839-5.584,13.986c-3.291,4.088-9.466,5.756-14.386,4.026c-6.954-2.445-6.393-8.438-3.992-14.362
		c2.153-2.212,5.526-2.461,8.068-4.052c1.288-3.306,1.996-7.008,1.828-10.573c-4.268,1.077-8.159,3.255-11.976,5.388
		c-5.321,4.271-12.588,1.198-18.017-1.305c-1.631-0.903-5.705-2.812-2.897-4.747c2.863-2.439,6.133-1.659,9.409-0.88
		c2.747,0.652,5.496,1.307,8.013,0.063c3.119-3.096,4.635-9.348,5.12-13.658c0.056-0.487-0.298-0.229-0.555,0.012
		c-2.015,4.744-5.866,3.78-9.897,2.814c-3.196-0.764-6.505-1.528-9.099,0.552c-5.479,4.43-5.122,12.291-7.791,18.336
		c-2.689,6.999,6.532,9.038,11.309,10.798c-13.709,11.064-24.556,27.436-42.813,31.071c-5.265,1.053-10.6,0.71-15.031-2.557
		c-0.333,3.765-2.22,10.323,2.337,12.476c3.975,1.519,8.151,1.876,12.212,1.08c22.812-4.48,39.39-31.647,57.362-43.807
		c-2.061,7.042-4.983,17.539,2.087,22.716c4.284,3.137,10.718,3.516,15.214,0.637c4.712-3.688,6.194-9.915,7.717-15.411
		c6.103,3.968,14.302,7.333,21.449,4.387c5.359-9.341,2.246-24.313-8.211-28.798c-4.825-1.941-8.159,2.715-10.251,6.301
		c-0.128-4.234-0.533-8.55-2.617-12.33c-6.952-14.149-16.216-27.024-23.037-41.246C139.113,749.35,165.964,800.68,110,836.216
		c-1.245,0.789-2.031,2.28,0.138,1.513c9.762-3.466,17.938-9.605,24.084-17.347c30.842-38.833,1.659-77.586-35.284-97.322
		c-5.499-2.83-11.061-5.939-17.303-6.696C81.508,721.498,79.918,727.254,83.117,731.796"/>
	<path fill="#231F20" d="M115.259,791.256c3.818-7.625,13.088-1.767,14.565,4.461C124.699,795.602,119.529,794.134,115.259,791.256
		 M83.117,731.796c7.038,14.72,15.608,28.618,23.827,42.692c2.409,4.464,5.395,8.984,5.826,14.15
		c-1.044,4.912-2.669,9.839-5.585,13.986c-3.292,4.088-9.467,5.756-14.386,4.026c-6.954-2.445-6.393-8.438-3.993-14.362
		c2.153-2.212,5.527-2.461,8.069-4.052c1.287-3.306,1.995-7.008,1.828-10.573c-4.268,1.077-8.16,3.255-11.976,5.388
		c-5.321,4.271-12.588,1.198-18.017-1.305c-1.632-0.903-5.705-2.812-2.897-4.747c2.863-2.439,6.134-1.659,9.409-0.88
		c2.746,0.652,5.496,1.307,8.012,0.063c3.119-3.096,4.636-9.348,5.12-13.658c0.056-0.487-0.297-0.229-0.555,0.012
		c-2.015,4.744-5.865,3.78-9.897,2.814c-3.195-0.764-6.504-1.528-9.098,0.552c-5.479,4.43-5.122,12.291-7.792,18.336
		c-2.688,6.999,6.533,9.038,11.31,10.798c-13.71,11.064-24.556,27.436-42.813,31.071c-5.266,1.053-10.6,0.71-15.031-2.557
		c-0.334,3.765-2.221,10.323,2.337,12.476c3.975,1.519,8.151,1.876,12.212,1.08c22.812-4.48,39.39-31.647,57.362-43.807
		c-2.061,7.042-4.983,17.539,2.088,22.716c4.284,3.137,10.718,3.516,15.213,0.637c4.712-3.688,6.194-9.915,7.717-15.411
		c6.104,3.968,14.302,7.333,21.449,4.387c5.359-9.341,2.246-24.313-8.21-28.798c-4.826-1.941-8.159,2.715-10.251,6.301
		c-0.128-4.234-0.533-8.55-2.617-12.33c-6.953-14.149-16.216-27.024-23.037-41.246C139.113,749.35,165.965,800.68,110,836.216
		c-1.244,0.789-2.031,2.28,0.138,1.513c9.764-3.466,17.938-9.605,24.085-17.347c30.842-38.833,1.66-77.586-35.284-97.322
		c-5.498-2.83-11.061-5.939-17.303-6.696C81.508,721.498,79.918,727.254,83.117,731.796"/>
	<path fill="#231F20" d="M5.786,709.311c-3.05-3.063-1.96-7.949-0.405-11.485c3.085,5.284,7.677,9.372,11.365,14.18
		c-0.835,0.194-1.69,0.285-2.545,0.285C11.182,712.292,8.14,711.142,5.786,709.311 M3.81,697.297
		c-2.137,5.691-3.722,13.915-0.973,19.552c4.135,8.48,12.905,7.939,20.671,5.005c1.334,2.801,2.063,7.218,2.222,10.434
		c0.302,6.146-1.187,12.4-3.377,18.16c0.487,1.387,3.105-2.937,4.215-4.722c5.701-10.5,5.674-24.445-0.199-34.851
		c-5.643-9.993-15.486-17.238-19.806-27.863C4.843,687.59,4.809,692.566,3.81,697.297"/>
	<path fill="#231F20" d="M5.786,709.311c-3.05-3.063-1.96-7.949-0.405-11.485c3.085,5.284,7.677,9.372,11.365,14.18
		c-0.835,0.194-1.69,0.285-2.545,0.285C11.182,712.292,8.14,711.142,5.786,709.311 M3.81,697.297
		c-2.137,5.691-3.722,13.915-0.973,19.552c4.135,8.48,12.905,7.938,20.671,5.007c1.334,2.799,2.063,7.216,2.222,10.432
		c0.302,6.146-1.187,12.4-3.377,18.16c0.487,1.389,3.105-2.937,4.215-4.722c5.701-10.5,5.674-24.445-0.199-34.851
		c-5.643-9.993-15.486-17.238-19.806-27.863C4.843,687.59,4.809,692.566,3.81,697.297"/>
	<path fill="#231F20" d="M35.848,732.081c3.172,1.273,6.119,3.064,9.355,4.16c1.537-3.271,2.749-6.842,3.049-10.438
		c-2.5-2.154-5.896-3.048-8.81-4.591C38.05,724.766,36.781,728.385,35.848,732.081"/>
	<path fill="#231F20" d="M35.848,732.081c3.172,1.273,6.119,3.064,9.355,4.16c1.537-3.271,2.749-6.842,3.049-10.438
		c-2.5-2.154-5.896-3.048-8.81-4.591C38.05,724.766,36.781,728.385,35.848,732.081"/>
</g>
</svg>
