<?xml version="1.0" encoding="utf-8"?>
<!-- Generator: Adobe Illustrator 16.0.0, SVG Export Plug-In . SVG Version: 6.00 Build 0)  -->
<!DOCTYPE svg PUBLIC "-//W3C//DTD SVG 1.1//EN" "http://www.w3.org/Graphics/SVG/1.1/DTD/svg11.dtd">
<svg version="1.1" id="Layer_1" xmlns="http://www.w3.org/2000/svg" xmlns:xlink="http://www.w3.org/1999/xlink" x="0px" y="0px"
	 width="198.935px" height="189.321px" viewBox="304.696 50.476 198.935 189.321"
	 enable-background="new 304.696 50.476 198.935 189.321" xml:space="preserve">
<g>
	<defs>
		<rect id="SVGID_1_" x="304.696" y="50.476" width="198.935" height="189.321"/>
	</defs>
	<clipPath id="SVGID_2_">
		<use xlink:href="#SVGID_1_"  overflow="visible"/>
	</clipPath>
	<g opacity="0.1" clip-path="url(#SVGID_2_)">
		<g>
			<defs>
				<rect id="SVGID_3_" x="0" y="50.476" width="503.63" height="239.797"/>
			</defs>
			<clipPath id="SVGID_4_">
				<use xlink:href="#SVGID_3_"  overflow="visible"/>
			</clipPath>
			<path clip-path="url(#SVGID_4_)" fill="#383838" d="M198.456,217.682c0.41-4.941,2.893-10.459,7.319-12.99
				c5.227-0.145,9.466,4.436,11.941,8.666c-2.733,4.375-6.147,8.273-9.622,12.063C204.474,223.494,200.555,221.35,198.456,217.682
				 M313.548,190.336c1.822-3.074,4.166-7.479,8.344-7.098c5.172,1.027,8.148,6.021,10.52,10.291
				C326.071,193.516,319.214,193.572,313.548,190.336 M251.724,60.502c-0.209,6.985-3.428,14.813,1.367,20.967
				c14.529,23.75,28.324,53.488,41.799,77.847c5.074,9.541,11.027,18.865,13.797,29.395c-1.256,10.406-4.416,23.283-15.736,26.904
				c-9.855,2.84-18.967-7.959-15.059-17.244c5.775-6.551,14.236-9.441,21.609-13.709c0.486-5.137-0.105-10.268-1.063-15.311
				c-15.875,9.086-34.25,12.66-52.466,13.24c4.085-8.666,2.611-19.529,7.985-27.285c7.205,0.246,12.121,8.15,17.037,12.967
				c5.703-12.408-5.084-28.426-17.893-28.557c-8.027,11.898-4.591,30.154-17.435,39.838c-8.685,5.373-8.859,15.816-8.458,24.902
				c10.878-9.162,25.911-4.965,38.694-8.434c-10.686,15.799-26.837,31.01-46.925,31.781c4.72-7.898,3.864-17.873,2.15-26.535
				c-2.797-6.504-11.564-16.902-18.61-9.734c-8.888,11.816-12.021,29.857-4.593,43.004c-29.889,25.041-83.753,39.521-122.365,37.24
				c0.406,5.123,0.867,10.244,1.572,15.33c45.671,1.25,97.202-14.377,130.918-45.203c2.018,0.684,4.295,1.271,6.685,1.629
				c27.567,4.145,46.701-22.291,59.816-42.248c0.137,10.705,0.844,36.695,22.203,29.135c8.988-3.182,10.533-17.6,12.857-25.771
				c6.613,4.094,14.707,4.758,22.283,4.146c4.768-0.283,6.078-5.531,6.936-9.354c3.449-11.594-2.467-25.357-12.779-31.35
				c-6.773-3.133-10.854,4.387-13.982,9.014c-9.246-32.676-36.377-74.67-52.107-102.661c26.098-11.394,56.209-10.742,83.168-2.641
				c23.536,7.413,43.226,28.302,47.069,52.942c1.043,3.086-1.15,7.504,1.752,9.623c7.49-34.836-19.479-69.95-52.716-78.573
				c-12.008-3.56-24.494-5.322-36.977-5.322C284.987,50.476,267.718,53.85,251.724,60.502"/>
			<g clip-path="url(#SVGID_4_)">
				<defs>
					<path id="SVGID_5_" d="M198.456,217.682c0.409-4.941,2.892-10.459,7.318-12.99c5.227-0.145,9.466,4.436,11.941,8.666
						c-2.733,4.375-6.147,8.273-9.622,12.063C204.473,223.494,200.554,221.35,198.456,217.682 M313.548,190.336
						c1.824-3.074,4.166-7.48,8.344-7.098c5.174,1.027,8.148,6.021,10.52,10.291C326.071,193.516,319.214,193.572,313.548,190.336
						 M251.723,60.502c-0.209,6.985-3.428,14.813,1.368,20.967c14.529,23.75,28.324,53.488,41.799,77.847
						c5.074,9.539,11.029,18.865,13.795,29.395c-1.256,10.406-4.414,23.283-15.734,26.904c-9.855,2.84-18.967-7.959-15.061-17.244
						c5.777-6.551,14.238-9.441,21.613-13.709c0.484-5.137-0.107-10.268-1.064-15.311c-15.875,9.086-34.248,12.66-52.466,13.24
						c4.085-8.666,2.611-19.529,7.986-27.285c7.205,0.246,12.121,8.15,17.039,12.965c5.701-12.406-5.086-28.424-17.896-28.555
						c-8.025,11.898-4.588,30.154-17.433,39.84c-8.685,5.371-8.859,15.814-8.457,24.9c10.878-9.162,25.91-4.965,38.693-8.434
						c-10.686,15.799-26.837,31.01-46.924,31.781c4.72-7.898,3.863-17.873,2.15-26.535c-2.798-6.504-11.565-16.902-18.611-9.734
						c-8.888,11.816-12.021,29.859-4.592,43.004c-29.89,25.041-83.754,39.521-122.366,37.24c0.406,5.123,0.867,10.244,1.572,15.33
						c45.671,1.248,97.202-14.377,130.918-45.203c2.019,0.684,4.295,1.271,6.686,1.629c27.566,4.145,46.698-22.289,59.815-42.248
						c0.137,10.705,0.844,36.693,22.203,29.135c8.988-3.182,10.533-17.6,12.857-25.773c6.611,4.096,14.707,4.76,22.283,4.148
						c4.768-0.283,6.078-5.531,6.936-9.354c3.449-11.594-2.467-25.357-12.779-31.35c-6.773-3.133-10.852,4.387-13.982,9.012
						c-9.244-32.674-36.377-74.668-52.107-102.659c26.096-11.394,56.209-10.742,83.168-2.641
						c23.536,7.413,43.226,28.301,47.067,52.942c1.045,3.086-1.148,7.504,1.754,9.623c7.49-34.836-19.479-69.95-52.716-78.573
						c-12.008-3.56-24.492-5.322-36.977-5.322C284.987,50.476,267.718,53.85,251.723,60.502"/>
				</defs>
				<clipPath id="SVGID_6_">
					<use xlink:href="#SVGID_5_"  overflow="visible"/>
				</clipPath>
				<path clip-path="url(#SVGID_6_)" fill="#383838" d="M198.456,217.682c0.41-4.941,2.893-10.459,7.319-12.99
					c5.227-0.145,9.466,4.436,11.941,8.666c-2.733,4.375-6.147,8.273-9.622,12.063C204.474,223.494,200.555,221.35,198.456,217.682
					 M313.548,190.336c1.822-3.074,4.166-7.48,8.344-7.098c5.172,1.027,8.148,6.021,10.52,10.291
					C326.071,193.516,319.214,193.572,313.548,190.336 M251.724,60.502c-0.209,6.985-3.428,14.813,1.367,20.967
					c14.529,23.75,28.324,53.488,41.799,77.847c5.074,9.539,11.027,18.865,13.797,29.395c-1.256,10.406-4.416,23.283-15.736,26.904
					c-9.855,2.84-18.967-7.959-15.059-17.244c5.775-6.551,14.236-9.441,21.609-13.709c0.486-5.137-0.105-10.268-1.063-15.311
					c-15.875,9.086-34.25,12.66-52.466,13.24c4.085-8.666,2.611-19.529,7.985-27.285c7.205,0.246,12.121,8.15,17.037,12.965
					c5.703-12.406-5.084-28.424-17.893-28.555c-8.027,11.898-4.591,30.154-17.435,39.838c-8.685,5.373-8.859,15.816-8.458,24.902
					c10.878-9.162,25.911-4.965,38.694-8.434c-10.684,15.799-26.837,31.01-46.925,31.781c4.72-7.898,3.864-17.873,2.15-26.535
					c-2.797-6.504-11.564-16.902-18.61-9.734c-8.889,11.816-12.021,29.857-4.593,43.004c-29.889,25.041-83.753,39.521-122.365,37.24
					c0.405,5.123,0.867,10.242,1.572,15.33c45.671,1.248,97.202-14.379,130.918-45.203c2.018,0.684,4.295,1.271,6.685,1.629
					c27.567,4.145,46.701-22.291,59.818-42.248c0.135,10.705,0.842,36.693,22.201,29.135c8.988-3.182,10.533-17.6,12.857-25.773
					c6.613,4.096,14.707,4.76,22.283,4.148c4.768-0.283,6.078-5.531,6.936-9.354c3.449-11.594-2.467-25.357-12.779-31.35
					c-6.773-3.133-10.854,4.387-13.982,9.012c-9.246-32.674-36.377-74.668-52.107-102.659c26.098-11.394,56.209-10.742,83.166-2.641
					c23.538,7.413,43.228,28.301,47.071,52.942c1.043,3.086-1.15,7.504,1.752,9.623c7.49-34.836-19.479-69.95-52.716-78.573
					c-12.008-3.56-24.494-5.322-36.977-5.322C284.987,50.476,267.718,53.85,251.724,60.502"/>
			</g>
			<path clip-path="url(#SVGID_4_)" fill="#383838" d="M382.389,151.732c7.305-1.771,16.176,0.25,22.152,4.938
				c-9.852,8.988-22.373,15.111-35.41,17.834C373.484,166.967,375.643,157.486,382.389,151.732 M381.623,137.607
				c-7.186,6.279-14.563,28.053-19.112,37.055c-7.293-1.182-8.986-10.852-15.646-13.822c-0.264,5.051-1.477,10.014-1.662,15.039
				c7.143,7.979,14.836,16.605,17.24,27.322c-15.658,24.24-57.355,44.965-94.014,56.65c-21.747,6.93-45.205,12.779-68.118,8.904
				c0.204,5.111,0.376,10.229,0.831,15.324c22.45,3.67,46.355-1.691,67.717-8.318c32.346-10.031,65.967-27.197,85.367-47.863
				c9.344-9.951,14.302-23.549,12.528-37.396c14.656-2.982,29.316-10.215,38.846-21.928c2.896-9.283,8.547-24.982-3.219-30.174
				c-4.146-1.008-9.322-3.1-13.967-3.1C385.916,135.301,383.57,135.906,381.623,137.607"/>
			<g clip-path="url(#SVGID_4_)">
				<defs>
					<path id="SVGID_7_" d="M382.391,151.73c7.303-1.77,16.174,0.252,22.15,4.939c-9.852,8.988-22.373,15.113-35.41,17.836
						C373.484,166.967,375.643,157.486,382.391,151.73 M381.623,137.607c-7.186,6.279-14.563,28.055-19.112,37.055
						c-7.293-1.182-8.986-10.852-15.645-13.822c-0.266,5.051-1.479,10.014-1.664,15.039c7.143,7.979,14.836,16.604,17.242,27.322
						c-15.66,24.238-57.357,44.965-94.018,56.65c-21.746,6.93-45.204,12.779-68.115,8.904c0.203,5.111,0.375,10.227,0.831,15.324
						c22.449,3.67,46.354-1.691,67.716-8.316c32.346-10.033,65.967-27.201,85.367-47.865c9.344-9.951,14.302-23.549,12.528-37.396
						c14.656-2.982,29.316-10.215,38.846-21.928c2.896-9.283,8.547-24.982-3.219-30.176c-4.145-1.008-9.322-3.098-13.969-3.098
						C385.916,135.301,383.57,135.906,381.623,137.607"/>
				</defs>
				<clipPath id="SVGID_8_">
					<use xlink:href="#SVGID_7_"  overflow="visible"/>
				</clipPath>
				<path clip-path="url(#SVGID_8_)" fill="#383838" d="M382.389,151.732c7.307-1.771,16.176,0.25,22.152,4.938
					c-9.852,8.988-22.373,15.111-35.41,17.834C373.484,166.967,375.643,157.486,382.389,151.732 M381.623,137.607
					c-7.186,6.277-14.563,28.053-19.112,37.055c-7.293-1.182-8.986-10.852-15.646-13.822c-0.264,5.051-1.477,10.014-1.662,15.039
					c7.143,7.979,14.836,16.605,17.24,27.32c-15.658,24.242-57.355,44.967-94.014,56.652c-21.747,6.93-45.205,12.779-68.118,8.904
					c0.204,5.111,0.376,10.229,0.831,15.324c22.45,3.67,46.355-1.693,67.717-8.318c32.346-10.031,65.967-27.197,85.367-47.863
					c9.344-9.951,14.302-23.549,12.528-37.396c14.656-2.982,29.316-10.215,38.846-21.928c2.896-9.283,8.547-24.982-3.219-30.174
					c-4.146-1.008-9.322-3.1-13.967-3.1C385.916,135.301,383.57,135.906,381.623,137.607"/>
			</g>
			<path clip-path="url(#SVGID_4_)" fill="#383838" d="M459.195,222.076c5.314-10.611,18.213-2.459,20.268,6.207
				C472.332,228.123,465.137,226.08,459.195,222.076 M414.469,139.334c9.793,20.486,21.719,39.824,33.156,59.408
				c3.352,6.213,7.506,12.504,8.105,19.693c-1.451,6.836-3.711,13.691-7.77,19.463c-4.58,5.688-13.172,8.01-20.018,5.602
				c-9.676-3.404-8.896-11.742-5.555-19.986c2.996-3.078,7.691-3.426,11.227-5.639c1.791-4.598,2.777-9.752,2.543-14.713
				c-5.939,1.5-11.355,4.531-16.664,7.496c-7.406,5.945-17.516,1.668-25.072-1.814c-2.271-1.258-7.939-3.912-4.031-6.605
				c3.984-3.395,8.535-2.309,13.092-1.225c3.822,0.908,7.648,1.818,11.15,0.086c4.34-4.307,6.451-13.006,7.125-19.006
				c0.078-0.678-0.414-0.318-0.773,0.018c-2.803,6.6-8.162,5.258-13.773,3.916c-4.447-1.064-9.051-2.127-12.66,0.766
				c-7.625,6.164-7.127,17.105-10.842,25.516c-3.742,9.738,9.09,12.576,15.738,15.025c-19.078,15.398-34.171,38.178-59.575,43.238
				c-7.328,1.463-14.75,0.988-20.916-3.557c-0.465,5.238-3.09,14.365,3.252,17.359c5.531,2.115,11.342,2.613,16.994,1.504
				c31.743-6.236,54.812-44.039,79.821-60.959c-2.867,9.799-6.934,24.406,2.906,31.611c5.961,4.365,14.914,4.891,21.17,0.885
				c6.557-5.133,8.619-13.797,10.738-21.445c8.494,5.521,19.902,10.203,29.848,6.102c7.457-12.998,3.125-33.832-11.426-40.072
				c-6.715-2.701-11.354,3.779-14.264,8.768c-0.178-5.893-0.742-11.898-3.641-17.158c-9.674-19.691-22.566-37.607-32.057-57.395
				c70.094,27.545,107.459,98.973,29.582,148.422c-1.732,1.098-2.826,3.174,0.193,2.105c13.584-4.822,24.961-13.367,33.514-24.137
				c42.918-54.037,2.309-107.963-49.098-135.428c-7.652-3.939-15.391-8.265-24.078-9.319
				C412.229,125.004,410.018,133.016,414.469,139.334"/>
			<g clip-path="url(#SVGID_4_)">
				<defs>
					<path id="SVGID_9_" d="M459.195,222.078c5.314-10.613,18.213-2.461,20.268,6.207
						C472.33,228.123,465.137,226.082,459.195,222.078 M414.469,139.334c9.793,20.486,21.719,39.824,33.156,59.408
						c3.352,6.213,7.508,12.504,8.107,19.693c-1.455,6.836-3.713,13.691-7.771,19.463c-4.58,5.689-13.172,8.012-20.018,5.602
						c-9.676-3.404-8.896-11.742-5.555-19.986c2.996-3.078,7.691-3.426,11.227-5.639c1.789-4.598,2.777-9.752,2.541-14.711
						c-5.936,1.498-11.354,4.529-16.664,7.496c-7.404,5.943-17.514,1.666-25.07-1.818c-2.271-1.256-7.938-3.91-4.031-6.604
						c3.984-3.396,8.535-2.311,13.092-1.227c3.822,0.91,7.648,1.82,11.15,0.088c4.34-4.305,6.451-13.006,7.125-19.006
						c0.078-0.678-0.414-0.32-0.773,0.018c-2.801,6.6-8.164,5.26-13.773,3.916c-4.447-1.064-9.051-2.127-12.66,0.768
						c-7.625,6.164-7.127,17.104-10.842,25.512c-3.742,9.74,9.09,12.576,15.736,15.027c-19.076,15.396-34.169,38.176-59.573,43.24
						c-7.328,1.461-14.748,0.986-20.916-3.559c-0.465,5.24-3.09,14.365,3.252,17.359c5.531,2.115,11.34,2.615,16.994,1.504
						c31.741-6.236,54.812-44.039,79.821-60.959c-2.867,9.799-6.934,24.408,2.906,31.611c5.961,4.363,14.914,4.891,21.17,0.885
						c6.557-5.133,8.619-13.795,10.738-21.445c8.496,5.521,19.9,10.203,29.848,6.102c7.457-12.998,3.125-33.832-11.426-40.07
						c-6.715-2.703-11.354,3.777-14.266,8.764c-0.176-5.889-0.74-11.896-3.639-17.158c-9.674-19.688-22.564-37.605-32.057-57.393
						c70.094,27.543,107.461,98.973,29.582,148.42c-1.732,1.1-2.826,3.176,0.191,2.107c13.586-4.82,24.963-13.367,33.518-24.139
						c42.916-54.033,2.309-107.961-49.1-135.428c-7.652-3.938-15.391-8.263-24.08-9.318
						C412.229,125.004,410.018,133.016,414.469,139.334"/>
				</defs>
				<clipPath id="SVGID_10_">
					<use xlink:href="#SVGID_9_"  overflow="visible"/>
				</clipPath>
				<path clip-path="url(#SVGID_10_)" fill="#383838" d="M459.195,222.076c5.314-10.611,18.213-2.459,20.268,6.207
					C472.332,228.123,465.137,226.08,459.195,222.076 M414.469,139.334c9.793,20.486,21.719,39.824,33.156,59.408
					c3.352,6.213,7.506,12.504,8.107,19.693c-1.453,6.836-3.713,13.691-7.771,19.463c-4.58,5.688-13.172,8.01-20.018,5.602
					c-9.676-3.404-8.896-11.742-5.555-19.986c2.996-3.078,7.691-3.426,11.227-5.639c1.791-4.598,2.777-9.752,2.543-14.713
					c-5.939,1.5-11.355,4.531-16.664,7.496c-7.406,5.945-17.516,1.668-25.072-1.814c-2.271-1.258-7.939-3.912-4.031-6.605
					c3.984-3.395,8.535-2.309,13.092-1.225c3.822,0.908,7.648,1.818,11.15,0.086c4.34-4.307,6.451-13.006,7.125-19.006
					c0.078-0.678-0.414-0.318-0.773,0.018c-2.803,6.6-8.162,5.258-13.773,3.916c-4.447-1.064-9.051-2.127-12.66,0.766
					c-7.625,6.164-7.127,17.105-10.842,25.516c-3.742,9.738,9.09,12.576,15.738,15.025c-19.078,15.398-34.171,38.178-59.575,43.238
					c-7.328,1.463-14.75,0.988-20.916-3.557c-0.465,5.238-3.09,14.365,3.252,17.359c5.531,2.115,11.342,2.613,16.994,1.504
					c31.743-6.236,54.812-44.039,79.821-60.959c-2.867,9.799-6.934,24.406,2.906,31.611c5.961,4.365,14.914,4.891,21.17,0.885
					c6.557-5.133,8.619-13.797,10.738-21.445c8.494,5.521,19.902,10.203,29.848,6.102c7.457-12.998,3.125-33.832-11.426-40.072
					c-6.715-2.701-11.354,3.779-14.264,8.768c-0.178-5.893-0.742-11.898-3.641-17.158c-9.674-19.691-22.566-37.607-32.057-57.395
					c70.094,27.545,107.459,98.973,29.582,148.422c-1.732,1.098-2.826,3.174,0.193,2.105c13.586-4.822,24.961-13.367,33.514-24.137
					c42.918-54.037,2.309-107.963-49.098-135.428c-7.652-3.939-15.391-8.265-24.078-9.319
					C412.229,125.004,410.018,133.016,414.469,139.334"/>
			</g>
			<path clip-path="url(#SVGID_4_)" fill="#383838" d="M306.86,108.045c-4.244-4.262-2.727-11.059-0.564-15.98
				c4.293,7.351,10.682,13.04,15.816,19.731c-1.162,0.271-2.352,0.397-3.541,0.397C314.368,112.194,310.136,110.596,306.86,108.045
				 M304.11,91.329c-2.973,7.92-5.178,19.363-1.352,27.207c5.754,11.8,17.957,11.048,28.764,6.964
				c1.857,3.896,2.871,10.043,3.092,14.518c0.42,8.553-1.652,17.256-4.699,25.271c0.678,1.93,4.32-4.086,5.865-6.57
				c7.932-14.611,7.895-34.016-0.277-48.496c-7.852-13.906-21.549-23.989-27.561-38.774
				C305.548,77.822,305.501,84.745,304.11,91.329"/>
			<g clip-path="url(#SVGID_4_)">
				<defs>
					<path id="SVGID_11_" d="M306.86,108.044c-4.246-4.26-2.727-11.057-0.564-15.979c4.291,7.351,10.684,13.04,15.816,19.731
						c-1.162,0.27-2.352,0.398-3.541,0.398C314.368,112.195,310.136,110.595,306.86,108.044 M304.11,91.33
						c-2.973,7.918-5.178,19.361-1.352,27.206c5.754,11.8,17.957,11.048,28.766,6.964c1.855,3.896,2.871,10.043,3.09,14.518
						c0.42,8.553-1.652,17.256-4.699,25.271c0.678,1.93,4.32-4.086,5.865-6.57c7.932-14.611,7.895-34.014-0.277-48.496
						c-7.852-13.905-21.549-23.99-27.561-38.773C305.548,77.823,305.501,84.746,304.11,91.33"/>
				</defs>
				<clipPath id="SVGID_12_">
					<use xlink:href="#SVGID_11_"  overflow="visible"/>
				</clipPath>
				<path clip-path="url(#SVGID_12_)" fill="#383838" d="M306.86,108.045c-4.244-4.262-2.727-11.059-0.564-15.98
					c4.293,7.35,10.682,13.04,15.816,19.731c-1.162,0.271-2.352,0.397-3.541,0.397C314.368,112.194,310.136,110.596,306.86,108.045
					 M304.11,91.329c-2.973,7.919-5.178,19.363-1.352,27.207c5.754,11.8,17.957,11.046,28.764,6.966
					c1.857,3.895,2.871,10.041,3.092,14.516c0.42,8.553-1.652,17.256-4.699,25.271c0.678,1.932,4.32-4.086,5.865-6.57
					c7.932-14.611,7.895-34.016-0.277-48.496c-7.852-13.906-21.549-23.989-27.561-38.774
					C305.548,77.822,305.501,84.745,304.11,91.329"/>
			</g>
			<path clip-path="url(#SVGID_4_)" fill="#383838" d="M348.692,139.732c4.414,1.77,8.516,4.262,13.018,5.789
				c2.139-4.553,3.826-9.523,4.243-14.527c-3.479-2.998-8.204-4.242-12.259-6.387C351.755,129.551,349.991,134.588,348.692,139.732"
				/>
			<g clip-path="url(#SVGID_4_)">
				<defs>
					<path id="SVGID_13_" d="M348.692,139.732c4.414,1.77,8.516,4.264,13.018,5.789c2.139-4.553,3.828-9.521,4.243-14.527
						c-3.479-2.998-8.204-4.242-12.257-6.387C351.755,129.551,349.993,134.586,348.692,139.732"/>
				</defs>
				<clipPath id="SVGID_14_">
					<use xlink:href="#SVGID_13_"  overflow="visible"/>
				</clipPath>
				<path clip-path="url(#SVGID_14_)" fill="#383838" d="M348.692,139.732c4.414,1.77,8.516,4.262,13.018,5.789
					c2.139-4.553,3.826-9.523,4.243-14.527c-3.479-2.998-8.204-4.242-12.259-6.387C351.755,129.551,349.991,134.588,348.692,139.732
					"/>
			</g>
		</g>
	</g>
</g>
</svg>
